<svg width="0" height="0" class="hidden">
  <symbol xmlns="http://www.w3.org/2000/svg" xml:space="preserve" viewBox="0 0 250 150" id="car">
    <path d="M82.6 65.3H68.7v2.2h14c.5 0 .8-.2.8-.7v-.9c.1-.4-.2-.6-.9-.6zm0 0H68.7v2.2h14c.5 0 .8-.2.8-.7v-.9c.1-.4-.2-.6-.9-.6zm0 0H68.7v2.2h14c.5 0 .8-.2.8-.7v-.9c.1-.4-.2-.6-.9-.6zm0 0H68.7v2.2h14c.5 0 .8-.2.8-.7v-.9c.1-.4-.2-.6-.9-.6zm0 0H68.7v2.2h14c.5 0 .8-.2.8-.7v-.9c.1-.4-.2-.6-.9-.6zm14.8 19.1h-2.5c-.3 0-.5.1-.5.4v1.7c0 .3.2.5.5.5h2.5c.3 0 .5-.2.5-.4v-1.7c0-.4-.1-.5-.5-.5zm10 0H105c-.3 0-.5.1-.5.4v1.7c0 .3.2.5.5.5h2.5c.4 0 .5-.2.5-.4v-1.7c-.1-.4-.2-.5-.6-.5zM82.6 65.3H68.7v2.2h14c.5 0 .8-.2.8-.7v-.9c.1-.4-.2-.6-.9-.6zm14.8 19.1h-2.5c-.3 0-.5.1-.5.4v1.7c0 .3.2.5.5.5h2.5c.3 0 .5-.2.5-.4v-1.7c0-.4-.1-.5-.5-.5zm10 0H105c-.3 0-.5.1-.5.4v1.7c0 .3.2.5.5.5h2.5c.4 0 .5-.2.5-.4v-1.7c-.1-.4-.2-.5-.6-.5zM82.6 65.3H68.7v2.2h14c.5 0 .8-.2.8-.7v-.9c.1-.4-.2-.6-.9-.6zm14.8 19.1h-2.5c-.3 0-.5.1-.5.4v1.7c0 .3.2.5.5.5h2.5c.3 0 .5-.2.5-.4v-1.7c0-.4-.1-.5-.5-.5zm10 0H105c-.3 0-.5.1-.5.4v1.7c0 .3.2.5.5.5h2.5c.4 0 .5-.2.5-.4v-1.7c-.1-.4-.2-.5-.6-.5zM82.6 65.3H68.7v2.2h14c.5 0 .8-.2.8-.7v-.9c.1-.4-.2-.6-.9-.6zm14.8 19.1h-2.5c-.3 0-.5.1-.5.4v1.7c0 .3.2.5.5.5h2.5c.3 0 .5-.2.5-.4v-1.7c0-.4-.1-.5-.5-.5zm10 0H105c-.3 0-.5.1-.5.4v1.7c0 .3.2.5.5.5h2.5c.4 0 .5-.2.5-.4v-1.7c-.1-.4-.2-.5-.6-.5zm80.5-28.3c-1.1-4.5-2.8-8.6-5.8-12-5.5-6.2-12.1-9.9-20.6-9.8-8.1.1-16.2.1-24.3.2-1.2 0-2-.2-2.6-1.4-1-1.9-2.6-3.1-4.6-3.8-.8-.3-1-.1-.8.7.4 1.5.7 3 1.1 4.6.2.8.4 1.6.6 2.5-.4 0-.6.1-.8 0-13.3-.2-26.5-.4-39.8-.7-.3 0-.7 0-.9-.2-1.9-1.8-4.1-1.8-6.3-.7-2.1 1-4.2 1.2-6.5 1.3-3 .1-6.1.3-9.1.6-1.5.1-2.9.2-4.3-.5-.5-.3-1-.4-1.6-.5-3-.5-5.9-1-8.9-1.3-8.2-.7-16.3-.6-24.3 1.7-5.4 1.5-9.9 4.2-13 9-2.5 3.7-3.9 7.7-4.7 12-.5 2.8-1 5.6-.3 8.4.3 1.2.3 2.4 0 3.6-.6 3.6-.6 7.3 0 10.9.2 1.1 0 2.3 0 3.4-.1 1.2-.4 2.5-.3 3.7.2 3.9 1 7.8 2.5 11.5 2.2 5.6 5.7 10 11.3 12.6 3.9 1.8 8 2.7 12.3 3.2 6.6.8 13.3.6 19.9-.1 2.5-.3 4.9-.9 7.3-1.6 1.3-.4 2.6-.6 3.9-.5 3.6.3 7.2.5 10.8.7 1.6.1 3.1.3 4.5 1 2.4 1.1 4.7 1.6 6.9-.5.2-.2.7-.2 1-.2 13-.2 26.1-.4 39.1-.7h1.3c-.1.5-.2.8-.3 1.2-.5 2-1 3.9-1.4 5.9-.2.8 0 1 .8.7 2-.7 3.7-1.9 4.6-3.8.6-1.1 1.4-1.4 2.6-1.4 8.6.1 17.2.1 25.7.1 1.7 0 3.4-.1 5-.5 9.8-2.5 16.3-8.6 18.9-18.3 1.2-4.6 1.9-9.3 2.6-14 .5-3.3.7-6.6.7-9.9-.2-5.9-.8-11.6-2.2-17.1zM46.2 41.3c1.4-.3 2.9-.5 4.3-.8 3.7-.6 7.3-1.3 11-1.7 3.8-.4 7.6-.5 11.5-.6 21-.7 42.1-.2 63.1.5.3 0 .7 0 1.1.3-.4.1-.7.2-1.1.3-8.5 1-17.1 2-25.7 2.9-8.8.9-17.6 1.9-26.5 1.6-9.2-.3-18.4-.9-27.6-1.4-3.1-.2-6.3-.5-9.4-.7-.3 0-.5-.1-.7-.2v-.2zm63.2 36.4H90.9v-4.3h17.5c.6 0 .9-.2.9-.6v-.9c0-.4-.3-.6-.9-.6h-13c-3.4 0-5.1-1.2-5.1-3.6V65c0-2.7 1.7-4.1 5.1-4.1h18.5v4.3H96.4c-.6 0-1 .2-1 .6v.8c0 .4.3.6 1 .6h13c3.4 0 5 1.3 5 4v2.4c.1 2.8-1.6 4.1-5 4.1zm5.1 2.2v9.2h-2.7v-9.2h2.7zm-3.9 4.7v2.3c0 1.4-.9 2.2-2.7 2.2h-3.5c-1.8 0-2.7-.7-2.7-2.2v-2.3c0-1.5.9-2.2 2.7-2.2h3.5c1.8 0 2.7.7 2.7 2.2zm-10 0v2.3c0 1.4-.9 2.2-2.7 2.2h-3.5c-1.8 0-2.7-.7-2.7-2.2v-2.3c0-1.5.9-2.2 2.7-2.2h3.5c1.8 0 2.7.7 2.7 2.2zm-13.2-.2h-2.9v4.7h-2.7v-9.2h2.7v2.5h3.4c1.8 0 2.7.7 2.7 2.2v4.5h-2.7v-4.2c0-.4-.2-.5-.5-.5zm-11.2 2.5h4.6V89h-5.1c-1.8 0-2.7-.7-2.7-2.2v-2.3c0-1.5.9-2.2 2.7-2.2h5v2h-4.5c-.3 0-.5.1-.5.4v1.7c0 .4.2.5.5.5zm.5-15.3h-8v6.1h-5.2V60.9h20.2c3.2 0 4.8 1.4 4.8 4.1v2.1c0 2.8-1.5 4.3-4.4 4.3H83l6.3 6.3h-6.7l-5.9-6.1zm-7.8 14.8h-3.7c-1.2 0-1.7-.4-1.7-1.4v-1.1c0-1 .6-1.5 1.7-1.5h6.5v1.9h-5.2c-.2 0-.3.1-.3.3v.1c0 .2.1.3.3.3h3.7c1.2 0 1.7.4 1.7 1.4v1.3c0 1-.6 1.5-1.7 1.5h-6.6v-2h5.3c.2 0 .3-.1.3-.3v-.1c.1-.3 0-.4-.3-.4zM22 107.5c-.5.2-1.4 0-1.8-.4-2.4-1.9-3.8-4.4-4-7.4-.1-.6.3-1.5.8-1.8.4-.3 1.4 0 1.9.3 2.5 1.9 3.7 4.5 4.2 7.8-.3.3-.6 1.2-1.1 1.5zm-.5-26.7c0 .3-.3.7-.5 1-.2-.3-.5-.7-.5-1.1V68.6l.6-.6c.1.2.4.4.4.6.1.8 0 1.6 0 2.5v9.7zm-2.6-29c-.5.4-1.5.6-1.9.4-.5-.3-.8-1.3-.8-1.9.3-2.9 1.6-5.4 4-7.3.5-.4 1.5-.7 1.9-.5.5.3.7 1.1 1 1.5-.6 3.4-1.8 6-4.2 7.8zm12.7 49.7c-.4 0-.9-.3-1.2-.6-3.3-4.2-5.4-8.9-5.9-14.3-.4-3.7-.7-7.3-1-11-.1-1.8.1-3.7.3-5.5.3-4 .6-8.1 1.8-12 1-3.3 2.7-6.3 4.9-9 .2-.3.7-.5 1.1-.5 8.3-.4 16.6-.7 24.9-1.1h1.3c-4.7 18.4-4.7 36.7 0 55.2h-1.3c-8.4-.5-16.6-.8-24.9-1.2zm105.6 9.7c-.3 0-.7.1-1 .1-21.2.7-42.4 1.2-63.6.4-4-.1-7.9-.3-11.8-.7-4.8-.6-9.5-1.5-14.2-2.3-.1 0-.2-.1-.5-.2 1.3-.1 2.5-.3 3.6-.4 12.1-.9 24.2-2 36.4-1.9 6.6.1 13.3.7 19.9 1.2 4.4.3 8.7.8 13.1 1.3 5.1.6 10.1 1.2 15.2 1.8l3 .3v.4zm23.1-27.5c-1 9.3-5.1 16.9-11.9 23.2-2.6 2.5-2.7 2.4-6.2 1.9-7.7-1.2-15.3-2.3-23-3.5-.1 0-.3-.1-.6-.2.3-1.2.6-2.4 1-3.6 2.3-7.5 3.3-15.1 3.2-22.9-.1-4.9.1-9.8-.2-14.6-.2-3.6-.9-7.1-1.7-10.6-.5-2.6-1.4-5.1-2.1-7.7-.1-.3-.1-.6-.2-.9 1.6-.3 3.1-.5 4.6-.8 7.1-1.1 14.2-2.2 21.3-3.2.6-.1 1.3.1 1.8.5 6.6 5.4 11.3 12.1 13.2 20.5 1.7 7.3 1.7 14.6.8 21.9zm12.4-44.4c.5-.3 1.4-.3 2-.1 2.9 1.3 4.9 3.6 5.8 6.6.4 1.2-.2 2-1.6 2-.3-.1-.9-.2-1.4-.5-2.4-1.4-4.2-3.4-5.1-6.1-.3-.7-.5-1.5.3-1.9zm7.7 65.1c-1 3-3 5.2-5.9 6.5-1.3.6-2.3 0-2.3-1.5.1-.2.1-.7.3-1.1 1.1-2.6 2.9-4.6 5.5-5.8.6-.3 1.5-.3 2 0 .7.3.6 1.2.4 1.9zm-73-20H105c-.3 0-.5.1-.5.4v1.7c0 .3.2.5.5.5h2.5c.4 0 .5-.2.5-.4v-1.7c-.1-.4-.2-.5-.6-.5zm-10 0h-2.5c-.3 0-.5.1-.5.4v1.7c0 .3.2.5.5.5h2.5c.3 0 .5-.2.5-.4v-1.7c0-.4-.1-.5-.5-.5zM83.6 66.8v-.9c0-.5-.3-.7-.9-.7h-14v2.2h14c.6.1.9-.1.9-.6zm23.8 17.6H105c-.3 0-.5.1-.5.4v1.7c0 .3.2.5.5.5h2.5c.4 0 .5-.2.5-.4v-1.7c-.1-.4-.2-.5-.6-.5zm-10 0h-2.5c-.3 0-.5.1-.5.4v1.7c0 .3.2.5.5.5h2.5c.3 0 .5-.2.5-.4v-1.7c0-.4-.1-.5-.5-.5zM82.6 65.3H68.7v2.2h14c.5 0 .8-.2.8-.7v-.9c.1-.4-.2-.6-.9-.6zm24.8 19.1H105c-.3 0-.5.1-.5.4v1.7c0 .3.2.5.5.5h2.5c.4 0 .5-.2.5-.4v-1.7c-.1-.4-.2-.5-.6-.5zm-10 0h-2.5c-.3 0-.5.1-.5.4v1.7c0 .3.2.5.5.5h2.5c.3 0 .5-.2.5-.4v-1.7c0-.4-.1-.5-.5-.5zM82.6 65.3H68.7v2.2h14c.5 0 .8-.2.8-.7v-.9c.1-.4-.2-.6-.9-.6zm24.8 19.1H105c-.3 0-.5.1-.5.4v1.7c0 .3.2.5.5.5h2.5c.4 0 .5-.2.5-.4v-1.7c-.1-.4-.2-.5-.6-.5zM82.6 65.3H68.7v2.2h14c.5 0 .8-.2.8-.7v-.9c.1-.4-.2-.6-.9-.6zm24.8 19.1H105c-.3 0-.5.1-.5.4v1.7c0 .3.2.5.5.5h2.5c.4 0 .5-.2.5-.4v-1.7c-.1-.4-.2-.5-.6-.5zM82.6 65.3H68.7v2.2h14c.5 0 .8-.2.8-.7v-.9c.1-.4-.2-.6-.9-.6zm0 0H68.7v2.2h14c.5 0 .8-.2.8-.7v-.9c.1-.4-.2-.6-.9-.6zm0 0H68.7v2.2h14c.5 0 .8-.2.8-.7v-.9c.1-.4-.2-.6-.9-.6z"></path>
  </symbol>
</svg>